<svg width="49" height="49" viewBox="0 0 49 49" fill="none" xmlns="http://www.w3.org/2000/svg">
<path fill-rule="evenodd" clip-rule="evenodd" d="M4 0C1.79086 0 0 1.79086 0 4V45C0 47.2091 1.79086 49 4 49H45C47.2091 49 49 47.2091 49 45V4C49 1.79086 47.2091 0 45 0H4ZM11 16C13.7614 16 16 13.7614 16 11C16 8.23859 13.7614 6 11 6C8.23858 6 6 8.23859 6 11C6 13.7614 8.23858 16 11 16ZM15 19V42H7V19H15ZM20 41.5H27V26.5C27.3333 26 28.6 25 31 25C33.4 25 34.3333 26.6667 34.5 27.5V41.5H41.5V26.5C41.5 22.5 37 19.5 33.5 19.5C30.7 19.5 27.8333 21.3333 27 22.5V19H20V41.5Z" fill="black"/>
</svg>
